<mxfile host="app.diagrams.net" modified="2024-06-02T14:58:23.194Z" agent="Mozilla/5.0 (X11; Linux x86_64; rv:126.0) Gecko/20100101 Firefox/126.0" etag="6XmUnzIk4UQy08_fY_zB" version="24.4.10" type="github">
  <diagram id="yPxyJZ8AM_hMuL3Unpa9" name="gitflow">
    <mxGraphModel dx="1420" dy="734" grid="1" gridSize="10" guides="1" tooltips="1" connect="1" arrows="1" fold="1" page="1" pageScale="1" pageWidth="850" pageHeight="1100" math="0" shadow="0">
      <root>
        <mxCell id="0" />
        <mxCell id="1" parent="0" />
        <mxCell id="sj2OE93TdvABAt4-UUbC-209" style="edgeStyle=orthogonalEdgeStyle;rounded=1;orthogonalLoop=1;jettySize=auto;html=1;exitX=1;exitY=0.5;exitDx=0;exitDy=0;entryX=0;entryY=0.5;entryDx=0;entryDy=0;curved=0;fillColor=#e1d5e7;strokeColor=#9673a6;fontSize=20;" edge="1" parent="1" source="sj2OE93TdvABAt4-UUbC-204" target="sj2OE93TdvABAt4-UUbC-182">
          <mxGeometry relative="1" as="geometry" />
        </mxCell>
        <mxCell id="sj2OE93TdvABAt4-UUbC-210" style="edgeStyle=orthogonalEdgeStyle;rounded=1;orthogonalLoop=1;jettySize=auto;html=1;exitX=1;exitY=0.5;exitDx=0;exitDy=0;entryX=0;entryY=0.5;entryDx=0;entryDy=0;curved=0;fillColor=#f8cecc;strokeColor=#b85450;fontSize=20;" edge="1" parent="1" source="sj2OE93TdvABAt4-UUbC-200" target="sj2OE93TdvABAt4-UUbC-182">
          <mxGeometry relative="1" as="geometry" />
        </mxCell>
        <mxCell id="sj2OE93TdvABAt4-UUbC-211" style="edgeStyle=orthogonalEdgeStyle;rounded=1;orthogonalLoop=1;jettySize=auto;html=1;exitX=1;exitY=0.5;exitDx=0;exitDy=0;entryX=0;entryY=0.5;entryDx=0;entryDy=0;curved=0;fillColor=#ffe6cc;strokeColor=#d79b00;fontSize=20;" edge="1" parent="1" source="sj2OE93TdvABAt4-UUbC-198" target="sj2OE93TdvABAt4-UUbC-182">
          <mxGeometry relative="1" as="geometry" />
        </mxCell>
        <mxCell id="sj2OE93TdvABAt4-UUbC-212" style="edgeStyle=orthogonalEdgeStyle;rounded=1;orthogonalLoop=1;jettySize=auto;html=1;exitX=1;exitY=0.5;exitDx=0;exitDy=0;entryX=0;entryY=0.5;entryDx=0;entryDy=0;curved=0;fillColor=#d5e8d4;strokeColor=#82b366;fontSize=20;" edge="1" parent="1" source="sj2OE93TdvABAt4-UUbC-196" target="sj2OE93TdvABAt4-UUbC-182">
          <mxGeometry relative="1" as="geometry" />
        </mxCell>
        <mxCell id="sj2OE93TdvABAt4-UUbC-205" style="edgeStyle=orthogonalEdgeStyle;rounded=1;orthogonalLoop=1;jettySize=auto;html=1;exitX=1;exitY=0.5;exitDx=0;exitDy=0;entryX=0;entryY=0.5;entryDx=0;entryDy=0;curved=0;fillColor=#e1d5e7;strokeColor=#9673a6;fontSize=20;" edge="1" parent="1" source="sj2OE93TdvABAt4-UUbC-181" target="sj2OE93TdvABAt4-UUbC-203">
          <mxGeometry relative="1" as="geometry" />
        </mxCell>
        <mxCell id="sj2OE93TdvABAt4-UUbC-193" style="edgeStyle=orthogonalEdgeStyle;rounded=1;orthogonalLoop=1;jettySize=auto;html=1;exitX=1;exitY=0.5;exitDx=0;exitDy=0;entryX=0;entryY=0.5;entryDx=0;entryDy=0;fillColor=#f8cecc;strokeColor=#b85450;curved=0;fontSize=20;" edge="1" parent="1" source="sj2OE93TdvABAt4-UUbC-181" target="sj2OE93TdvABAt4-UUbC-189">
          <mxGeometry relative="1" as="geometry" />
        </mxCell>
        <mxCell id="sj2OE93TdvABAt4-UUbC-192" style="edgeStyle=orthogonalEdgeStyle;rounded=1;orthogonalLoop=1;jettySize=auto;html=1;entryX=0;entryY=0.5;entryDx=0;entryDy=0;fillColor=#ffe6cc;strokeColor=#d79b00;curved=0;fontSize=20;" edge="1" parent="1" target="sj2OE93TdvABAt4-UUbC-188">
          <mxGeometry relative="1" as="geometry">
            <mxPoint x="90" y="100" as="sourcePoint" />
          </mxGeometry>
        </mxCell>
        <mxCell id="sj2OE93TdvABAt4-UUbC-191" style="edgeStyle=orthogonalEdgeStyle;rounded=1;orthogonalLoop=1;jettySize=auto;html=1;exitX=1;exitY=0.5;exitDx=0;exitDy=0;entryX=0;entryY=0.5;entryDx=0;entryDy=0;fillColor=#d5e8d4;strokeColor=#82b366;curved=0;fontSize=20;" edge="1" parent="1" source="sj2OE93TdvABAt4-UUbC-181" target="sj2OE93TdvABAt4-UUbC-184">
          <mxGeometry relative="1" as="geometry" />
        </mxCell>
        <mxCell id="sj2OE93TdvABAt4-UUbC-190" style="edgeStyle=orthogonalEdgeStyle;rounded=1;orthogonalLoop=1;jettySize=auto;html=1;exitX=1;exitY=0.5;exitDx=0;exitDy=0;entryX=0;entryY=0.5;entryDx=0;entryDy=0;curved=0;fillColor=#dae8fc;strokeColor=#6c8ebf;fontSize=20;" edge="1" parent="1" source="sj2OE93TdvABAt4-UUbC-181" target="sj2OE93TdvABAt4-UUbC-180">
          <mxGeometry relative="1" as="geometry" />
        </mxCell>
        <mxCell id="sj2OE93TdvABAt4-UUbC-195" value="Computer Vision" style="edgeStyle=orthogonalEdgeStyle;rounded=0;orthogonalLoop=1;jettySize=auto;html=1;dashed=1;fillColor=#dae8fc;strokeColor=#6c8ebf;fontSize=20;" edge="1" parent="1" source="sj2OE93TdvABAt4-UUbC-180" target="sj2OE93TdvABAt4-UUbC-194">
          <mxGeometry relative="1" as="geometry" />
        </mxCell>
        <mxCell id="sj2OE93TdvABAt4-UUbC-180" value="" style="ellipse;whiteSpace=wrap;html=1;aspect=fixed;fillColor=#dae8fc;strokeColor=#6c8ebf;fontSize=20;" vertex="1" parent="1">
          <mxGeometry x="140" y="140" width="80" height="80" as="geometry" />
        </mxCell>
        <mxCell id="sj2OE93TdvABAt4-UUbC-183" value="Main" style="edgeStyle=orthogonalEdgeStyle;rounded=0;orthogonalLoop=1;jettySize=auto;html=1;fontSize=20;" edge="1" parent="1" source="sj2OE93TdvABAt4-UUbC-181" target="sj2OE93TdvABAt4-UUbC-182">
          <mxGeometry relative="1" as="geometry" />
        </mxCell>
        <mxCell id="sj2OE93TdvABAt4-UUbC-181" value="" style="ellipse;whiteSpace=wrap;html=1;aspect=fixed;" vertex="1" parent="1">
          <mxGeometry x="10" y="60" width="80" height="80" as="geometry" />
        </mxCell>
        <mxCell id="sj2OE93TdvABAt4-UUbC-182" value="" style="ellipse;whiteSpace=wrap;html=1;aspect=fixed;fontSize=20;" vertex="1" parent="1">
          <mxGeometry x="750" y="60" width="80" height="80" as="geometry" />
        </mxCell>
        <mxCell id="sj2OE93TdvABAt4-UUbC-197" value="Power" style="edgeStyle=orthogonalEdgeStyle;rounded=0;orthogonalLoop=1;jettySize=auto;html=1;fillColor=#d5e8d4;strokeColor=#82b366;dashed=1;fontSize=20;" edge="1" parent="1" source="sj2OE93TdvABAt4-UUbC-184" target="sj2OE93TdvABAt4-UUbC-196">
          <mxGeometry relative="1" as="geometry" />
        </mxCell>
        <mxCell id="sj2OE93TdvABAt4-UUbC-184" value="" style="ellipse;whiteSpace=wrap;html=1;aspect=fixed;fillColor=#d5e8d4;strokeColor=#82b366;fontSize=20;" vertex="1" parent="1">
          <mxGeometry x="140" y="260" width="80" height="80" as="geometry" />
        </mxCell>
        <mxCell id="sj2OE93TdvABAt4-UUbC-199" value="Communication" style="edgeStyle=orthogonalEdgeStyle;rounded=0;orthogonalLoop=1;jettySize=auto;html=1;fillColor=#ffe6cc;strokeColor=#d79b00;dashed=1;fontSize=20;" edge="1" parent="1" source="sj2OE93TdvABAt4-UUbC-188" target="sj2OE93TdvABAt4-UUbC-198">
          <mxGeometry relative="1" as="geometry" />
        </mxCell>
        <mxCell id="sj2OE93TdvABAt4-UUbC-188" value="" style="ellipse;whiteSpace=wrap;html=1;aspect=fixed;fillColor=#ffe6cc;strokeColor=#d79b00;fontSize=20;" vertex="1" parent="1">
          <mxGeometry x="140" y="380" width="80" height="80" as="geometry" />
        </mxCell>
        <mxCell id="sj2OE93TdvABAt4-UUbC-201" value="3D Print" style="edgeStyle=orthogonalEdgeStyle;rounded=0;orthogonalLoop=1;jettySize=auto;html=1;fillColor=#f8cecc;strokeColor=#b85450;dashed=1;fontSize=20;" edge="1" parent="1" source="sj2OE93TdvABAt4-UUbC-189" target="sj2OE93TdvABAt4-UUbC-200">
          <mxGeometry relative="1" as="geometry" />
        </mxCell>
        <mxCell id="sj2OE93TdvABAt4-UUbC-189" value="" style="ellipse;whiteSpace=wrap;html=1;aspect=fixed;fillColor=#f8cecc;strokeColor=#b85450;fontSize=20;" vertex="1" parent="1">
          <mxGeometry x="140" y="500" width="80" height="80" as="geometry" />
        </mxCell>
        <mxCell id="sj2OE93TdvABAt4-UUbC-213" style="edgeStyle=orthogonalEdgeStyle;rounded=1;orthogonalLoop=1;jettySize=auto;html=1;exitX=1;exitY=0.5;exitDx=0;exitDy=0;entryX=0;entryY=0.5;entryDx=0;entryDy=0;fillColor=#dae8fc;strokeColor=#6c8ebf;curved=0;fontSize=20;" edge="1" parent="1" source="sj2OE93TdvABAt4-UUbC-194" target="sj2OE93TdvABAt4-UUbC-182">
          <mxGeometry relative="1" as="geometry" />
        </mxCell>
        <mxCell id="sj2OE93TdvABAt4-UUbC-194" value="" style="ellipse;whiteSpace=wrap;html=1;aspect=fixed;fillColor=#dae8fc;strokeColor=#6c8ebf;fontSize=20;" vertex="1" parent="1">
          <mxGeometry x="620" y="140" width="80" height="80" as="geometry" />
        </mxCell>
        <mxCell id="sj2OE93TdvABAt4-UUbC-196" value="" style="ellipse;whiteSpace=wrap;html=1;aspect=fixed;fillColor=#d5e8d4;strokeColor=#82b366;fontSize=20;" vertex="1" parent="1">
          <mxGeometry x="620" y="260" width="80" height="80" as="geometry" />
        </mxCell>
        <mxCell id="sj2OE93TdvABAt4-UUbC-198" value="" style="ellipse;whiteSpace=wrap;html=1;fillColor=#ffe6cc;strokeColor=#d79b00;fontSize=20;" vertex="1" parent="1">
          <mxGeometry x="620" y="380" width="80" height="80" as="geometry" />
        </mxCell>
        <mxCell id="sj2OE93TdvABAt4-UUbC-200" value="" style="ellipse;whiteSpace=wrap;html=1;fillColor=#f8cecc;strokeColor=#b85450;fontSize=20;" vertex="1" parent="1">
          <mxGeometry x="620" y="500" width="80" height="80" as="geometry" />
        </mxCell>
        <mxCell id="sj2OE93TdvABAt4-UUbC-202" value="Control System" style="edgeStyle=orthogonalEdgeStyle;rounded=0;orthogonalLoop=1;jettySize=auto;html=1;fillColor=#e1d5e7;strokeColor=#9673a6;dashed=1;fontSize=20;" edge="1" parent="1" source="sj2OE93TdvABAt4-UUbC-203" target="sj2OE93TdvABAt4-UUbC-204">
          <mxGeometry relative="1" as="geometry" />
        </mxCell>
        <mxCell id="sj2OE93TdvABAt4-UUbC-203" value="" style="ellipse;whiteSpace=wrap;html=1;aspect=fixed;fillColor=#e1d5e7;strokeColor=#9673a6;fontSize=20;" vertex="1" parent="1">
          <mxGeometry x="140" y="620" width="80" height="80" as="geometry" />
        </mxCell>
        <mxCell id="sj2OE93TdvABAt4-UUbC-204" value="" style="ellipse;whiteSpace=wrap;html=1;fillColor=#e1d5e7;strokeColor=#9673a6;fontSize=20;" vertex="1" parent="1">
          <mxGeometry x="620" y="620" width="80" height="80" as="geometry" />
        </mxCell>
      </root>
    </mxGraphModel>
  </diagram>
</mxfile>
